<svg id="Ebene_1" data-name="Ebene 1" xmlns="http://www.w3.org/2000/svg" viewBox="0 0 810.55 810.57"><defs><style>.cls-1{fill:#fff;}</style></defs><title>logo</title><polygon class="cls-1" points="405.39 405.2 405.39 405.41 405.35 405.37 405.16 405.37 405.16 405.2 405.39 405.2"/><path class="cls-1" d="M912,510.41V915.78L506.88,510.62v-.21h-.19l0,0V115.21a10,10,0,0,1,10-10H902a10,10,0,0,1,10,10v395.2Z" transform="translate(-101.49 -105.21)"/><path class="cls-1" d="M506.84,510.58l0,0V905.78a10,10,0,0,1-10,10H111.51a10,10,0,0,1-10-10V510.58h0V105.21L506.65,510.37v.21Z" transform="translate(-101.49 -105.21)"/><polygon class="cls-1" points="405.37 405.37 405.16 405.37 405.16 405.16 405.37 405.37"/><polygon class="cls-1" points="405.39 405.2 405.39 405.37 405.16 405.37 405.16 405.16 405.2 405.2 405.39 405.2"/><polygon class="cls-1" points="405.39 405.2 405.39 405.41 405.35 405.37 405.18 405.2 405.39 405.2"/></svg>